<?xml version="1.0" encoding="UTF-8" standalone="no"?>
<!-- Created with Inkscape (http://www.inkscape.org/) -->

<svg
   width="210mm"
   height="210mm"
   viewBox="0 0 210 210"
   version="1.1"
   id="svg1"
   xml:space="preserve"
   inkscape:version="1.4 (e7c3feb100, 2024-10-09)"
   sodipodi:docname="logo.svg"
   xmlns:inkscape="http://www.inkscape.org/namespaces/inkscape"
   xmlns:sodipodi="http://sodipodi.sourceforge.net/DTD/sodipodi-0.dtd"
   xmlns="http://www.w3.org/2000/svg"
   xmlns:svg="http://www.w3.org/2000/svg"><sodipodi:namedview
     id="namedview1"
     pagecolor="#ffffff"
     bordercolor="#000000"
     borderopacity="0.25"
     inkscape:showpageshadow="2"
     inkscape:pageopacity="0.0"
     inkscape:pagecheckerboard="0"
     inkscape:deskcolor="#d1d1d1"
     inkscape:document-units="mm"
     inkscape:zoom="1.2031628"
     inkscape:cx="566.42375"
     inkscape:cy="535.2559"
     inkscape:window-width="3428"
     inkscape:window-height="2132"
     inkscape:window-x="0"
     inkscape:window-y="0"
     inkscape:window-maximized="1"
     inkscape:current-layer="layer1" /><defs
     id="defs1" /><g
     inkscape:label="Layer 1"
     inkscape:groupmode="layer"
     id="layer1"><path
       style="fill:#1f79d3;fill-opacity:1;stroke-width:3.42785"
       d="m 131.92386,203.80294 c -0.9966,-0.45134 -13.97512,-13.01859 -28.84118,-27.92715 -25.945135,-26.01943 -27.02912,-27.19672 -27.02912,-29.35589 0,-1.44404 0.432492,-2.68187 1.208004,-3.45738 1.162754,-1.16277 2.013348,-1.20802 22.7186,-1.20802 h 16.068926 l -0.24783,-6.19101 c -0.27971,-6.99142 -1.21034,-9.59957 -4.59935,-12.89092 -4.25276,-4.13023 0.18511,-4.26632 -29.10838,-4.68395 -30.637834,-0.4368 -32.022204,-0.63456 -43.438273,-6.20545 -6.237963,-3.04405 -7.452416,-3.92158 -12.726678,-9.19604 -4.964497,-4.964692 -6.252178,-6.683264 -8.668289,-11.568909 -4.280509,-8.655655 -5.410532,-13.666052 -5.380867,-23.858144 0.01885,-6.531293 0.304529,-9.5073 1.254434,-13.074513 2.8734,-10.790742 7.593252,-18.899157 15.790831,-27.127676 C 36.358118,19.596389 44.027345,14.943552 54.103093,11.782377 63.684578,8.776281 65.190535,8.6717254 98.906571,8.6717254 H 130.5177 l 1.45806,1.6946906 c 1.44535,1.679956 1.45804,1.809632 1.45804,14.915409 0,13.103022 -0.0136,13.235804 -1.45708,14.915409 l -1.45707,1.69469 -31.914115,0.301993 c -31.032853,0.293664 -32.002659,0.338294 -35.120835,1.616539 -5.467143,2.241178 -9.942095,6.255777 -12.673267,11.36954 -1.400893,2.622969 -1.614448,3.734702 -1.624526,8.456048 -0.0103,4.565961 0.225896,5.919406 1.472569,8.456052 1.998298,4.066113 6.538448,8.480021 10.75549,10.456409 9.039063,3.728032 20.026412,1.872894 29.738602,2.019044 14.450772,0.217463 22.029822,0.818716 23.550442,1.011687 41.55086,5.272874 42.28027,48.461154 42.28027,51.486954 v 4.78831 h 18.69045 c 7.28684,0 13.93838,0.26224 14.78121,0.58267 1.76775,0.67209 2.60728,3.11489 1.80398,5.24893 -0.64629,1.71687 -52.29878,54.28556 -54.9001,55.87388 -2.137,1.30485 -3.00571,1.34365 -5.43602,0.24304 z"
       id="path1"
       sodipodi:nodetypes="cssssccssssscsssscssccssscssssscsssscc" /></g></svg>
