<?xml version="1.0" encoding="UTF-8" standalone="no"?>
<!-- Created with Inkscape (http://www.inkscape.org/) -->

<svg
   width="210mm"
   height="210mm"
   viewBox="0 0 210 210"
   version="1.1"
   id="svg1"
   xml:space="preserve"
   inkscape:version="1.4.2 (ebf0e940d0, 2025-05-08)"
   sodipodi:docname="logo.svg"
   inkscape:export-filename="logo.png"
   inkscape:export-xdpi="96"
   inkscape:export-ydpi="96"
   xmlns:inkscape="http://www.inkscape.org/namespaces/inkscape"
   xmlns:sodipodi="http://sodipodi.sourceforge.net/DTD/sodipodi-0.dtd"
   xmlns="http://www.w3.org/2000/svg"
   xmlns:svg="http://www.w3.org/2000/svg"><sodipodi:namedview
     id="namedview1"
     pagecolor="#ffffff"
     bordercolor="#000000"
     borderopacity="0.25"
     inkscape:showpageshadow="2"
     inkscape:pageopacity="0.0"
     inkscape:pagecheckerboard="0"
     inkscape:deskcolor="#d1d1d1"
     inkscape:document-units="mm"
     inkscape:zoom="0.96134127"
     inkscape:cx="215.84426"
     inkscape:cy="62.412799"
     inkscape:window-width="3432"
     inkscape:window-height="2136"
     inkscape:window-x="0"
     inkscape:window-y="0"
     inkscape:window-maximized="1"
     inkscape:current-layer="layer1" /><defs
     id="defs1" /><g
     inkscape:label="Layer 1"
     inkscape:groupmode="layer"
     id="layer1"><g
       id="g3"><path
         id="path2-7"
         style="fill:#f3ac25;stroke-width:0.424695"
         d="m 75.214415,37.787996 c -16.108813,0.097 -30.72191,0.571305 -32.197516,1.423246 -3.330377,1.922798 -38.4561886,62.762208 -38.4561886,66.607808 0,3.84558 35.1258016,64.68501 38.4561886,66.60781 1.4756,0.85195 16.088701,1.32626 32.197516,1.42325 v -12.46685 c -12.698619,-0.0944 -23.984551,-0.47929 -25.154807,-1.15495 -2.72046,-1.57066 -31.41293,-51.26796 -31.41293,-54.40926 0,-3.14131 28.69248,-52.83806 31.41293,-54.408711 1.17026,-0.67565 12.45619,-1.060589 25.154807,-1.154947 z"
         sodipodi:nodetypes="csssccssscc" /><path
         d="m 132.6977,48.322842 v 12.467396 c 12.69884,0.09435 23.98508,0.479287 25.15536,1.154947 2.72045,1.570651 31.41292,51.267395 31.41292,54.408705 0,3.14131 -28.69247,52.83862 -31.41292,54.40928 -1.17028,0.67566 -12.45652,1.0606 -25.15536,1.15495 v 12.46685 c 16.10903,-0.0971 30.72244,-0.57129 32.19806,-1.42325 3.33039,-1.9228 38.45564,-62.76224 38.45564,-66.60783 0,-3.84559 -35.12525,-64.685004 -38.45564,-66.607802 -1.47562,-0.85195 -16.08903,-1.326257 -32.19806,-1.423246 z"
         style="fill:#f3ac25;stroke-width:0.424695"
         id="path1-2" /><rect
         style="fill:#f3ac25;fill-opacity:1;stroke-width:1.54362"
         id="rect3"
         width="183.80531"
         height="12.040363"
         x="-136.5202"
         y="139.07922"
         ry="0.56497222"
         transform="rotate(-60)" /></g></g></svg>
